{
	"asset":{
		"generator":"Khronos glTF Blender I/O v4.5.47",
		"version":"2.0"
	},
	"scene":0,
	"scenes":[
		{
			"name":"Scene",
			"nodes":[
				1
			]
		}
	],
	"nodes":[
		{
			"mesh":0,
			"name":"handle.002",
			"rotation":[
				0,
				0,
				-0.4226183295249939,
				0.9063077569007874
			],
			"translation":[
				0,
				0.10000000149011612,
				0
			]
		},
		{
			"children":[
				0
			],
			"mesh":1,
			"name":"lever-col"
		}
	],
	"animations":[
		{
			"channels":[
				{
					"sampler":0,
					"target":{
						"node":0,
						"path":"rotation"
					}
				}
			],
			"name":"toggle-off.001",
			"samplers":[
				{
					"input":8,
					"interpolation":"LINEAR",
					"output":9
				}
			]
		},
		{
			"channels":[
				{
					"sampler":0,
					"target":{
						"node":0,
						"path":"rotation"
					}
				}
			],
			"name":"toggle-on.001",
			"samplers":[
				{
					"input":8,
					"interpolation":"LINEAR",
					"output":10
				}
			]
		},
		{
			"channels":[
				{
					"sampler":0,
					"target":{
						"node":0,
						"path":"rotation"
					}
				}
			],
			"name":"toggle.001",
			"samplers":[
				{
					"input":11,
					"interpolation":"LINEAR",
					"output":12
				}
			]
		}
	],
	"materials":[
		{
			"doubleSided":true,
			"name":"colormap.003",
			"pbrMetallicRoughness":{
				"baseColorTexture":{
					"index":0
				},
				"metallicFactor":0
			}
		}
	],
	"meshes":[
		{
			"name":"handle.002",
			"primitives":[
				{
					"attributes":{
						"POSITION":0,
						"NORMAL":1,
						"TEXCOORD_0":2
					},
					"indices":3,
					"material":0
				}
			]
		},
		{
			"name":"lever-single",
			"primitives":[
				{
					"attributes":{
						"POSITION":4,
						"NORMAL":5,
						"TEXCOORD_0":6
					},
					"indices":7,
					"material":0
				}
			]
		}
	],
	"textures":[
		{
			"sampler":0,
			"source":0
		}
	],
	"images":[
		{
			"mimeType":"image/png",
			"name":"colormap",
			"uri":"Textures/colormap.png"
		}
	],
	"accessors":[
		{
			"bufferView":0,
			"componentType":5126,
			"count":68,
			"max":[
				0.05000000074505806,
				0.3499999940395355,
				0.05000000074505806
			],
			"min":[
				-0.05000000074505806,
				0,
				-0.05000000074505806
			],
			"type":"VEC3"
		},
		{
			"bufferView":1,
			"componentType":5126,
			"count":68,
			"type":"VEC3"
		},
		{
			"bufferView":2,
			"componentType":5126,
			"count":68,
			"type":"VEC2"
		},
		{
			"bufferView":3,
			"componentType":5123,
			"count":126,
			"type":"SCALAR"
		},
		{
			"bufferView":4,
			"componentType":5126,
			"count":68,
			"max":[
				0.25,
				0.20000000298023224,
				0.15000000596046448
			],
			"min":[
				-0.25,
				0,
				-0.15000000596046448
			],
			"type":"VEC3"
		},
		{
			"bufferView":5,
			"componentType":5126,
			"count":68,
			"type":"VEC3"
		},
		{
			"bufferView":6,
			"componentType":5126,
			"count":68,
			"type":"VEC2"
		},
		{
			"bufferView":7,
			"componentType":5123,
			"count":114,
			"type":"SCALAR"
		},
		{
			"bufferView":8,
			"componentType":5126,
			"count":13,
			"max":[
				0.5
			],
			"min":[
				0
			],
			"type":"SCALAR"
		},
		{
			"bufferView":9,
			"componentType":5126,
			"count":13,
			"type":"VEC4"
		},
		{
			"bufferView":10,
			"componentType":5126,
			"count":13,
			"type":"VEC4"
		},
		{
			"bufferView":11,
			"componentType":5126,
			"count":25,
			"max":[
				1
			],
			"min":[
				0
			],
			"type":"SCALAR"
		},
		{
			"bufferView":12,
			"componentType":5126,
			"count":25,
			"type":"VEC4"
		}
	],
	"bufferViews":[
		{
			"buffer":0,
			"byteLength":816,
			"byteOffset":0,
			"target":34962
		},
		{
			"buffer":0,
			"byteLength":816,
			"byteOffset":816,
			"target":34962
		},
		{
			"buffer":0,
			"byteLength":544,
			"byteOffset":1632,
			"target":34962
		},
		{
			"buffer":0,
			"byteLength":252,
			"byteOffset":2176,
			"target":34963
		},
		{
			"buffer":0,
			"byteLength":816,
			"byteOffset":2428,
			"target":34962
		},
		{
			"buffer":0,
			"byteLength":816,
			"byteOffset":3244,
			"target":34962
		},
		{
			"buffer":0,
			"byteLength":544,
			"byteOffset":4060,
			"target":34962
		},
		{
			"buffer":0,
			"byteLength":228,
			"byteOffset":4604,
			"target":34963
		},
		{
			"buffer":0,
			"byteLength":52,
			"byteOffset":4832
		},
		{
			"buffer":0,
			"byteLength":208,
			"byteOffset":4884
		},
		{
			"buffer":0,
			"byteLength":208,
			"byteOffset":5092
		},
		{
			"buffer":0,
			"byteLength":100,
			"byteOffset":5300
		},
		{
			"buffer":0,
			"byteLength":400,
			"byteOffset":5400
		}
	],
	"samplers":[
		{
			"magFilter":9728,
			"minFilter":9984
		}
	],
	"buffers":[
		{
			"byteLength":5800,
			"uri":"lever.bin"
		}
	]
}
